<svg width="1214" height="1232" viewBox="0 0 1214 1232" fill="none" xmlns="http://www.w3.org/2000/svg">
<path d="M337.632 656.783C337.632 711.788 375.796 748.2 425.41 748.2C475.024 748.2 513.188 711.788 513.188 656.783C513.188 601.777 475.024 565.364 425.41 565.364C375.796 565.364 337.632 601.777 337.632 656.783Z" fill="#4B55CD"/>
<path fill-rule="evenodd" clip-rule="evenodd" d="M1213.32 615.768C1213.32 955.849 941.705 1231.54 606.658 1231.54C271.61 1231.54 0 955.849 0 615.768C0 275.689 271.61 0 606.658 0C941.705 0 1213.32 275.689 1213.32 615.768ZM908.633 463.101V574.662H830.016V711.788C830.016 745.102 858.251 748.2 908.633 745.102V850.468C759.026 865.962 715.519 820.249 715.519 711.788V574.662H654.456V463.101H715.519V389.501L830.016 354.638V463.101H908.633ZM627.681 656.783C627.681 772.219 537.614 861.313 425.41 861.313C313.207 861.313 223.139 772.219 223.139 656.783C223.139 541.348 313.207 452.254 425.41 452.254C537.614 452.254 627.681 541.348 627.681 656.783ZM1045.79 861.313C1085.48 861.313 1118.3 828 1118.3 787.713C1118.3 747.426 1085.48 714.112 1045.79 714.112C1006.1 714.112 973.276 747.426 973.276 787.713C973.276 828 1006.1 861.313 1045.79 861.313Z" fill="#4B55CD"/>
</svg>
